<?xml version="1.0" encoding="utf-8"?>
<!-- Generator: $$$/GeneralStr/196=Adobe Illustrator 27.6.0, SVG Export Plug-In . SVG Version: 6.00 Build 0)  -->
<svg version="1.1" id="Layer_1" xmlns="http://www.w3.org/2000/svg" xmlns:xlink="http://www.w3.org/1999/xlink" x="0px" y="0px"
	 viewBox="0 0 183 43" style="enable-background:new 0 0 183 43;" xml:space="preserve">
<style type="text/css">
	.st0{fill:#FFFFFF;}
	.st1{fill:none;}
	.st2{fill:none;stroke:#000000;stroke-width:0.25;stroke-miterlimit:10;}
	.st3{font-family:'MyriadPro-Regular';}
	.st4{font-size:26px;}
</style>
<g>
	<g>
		<path class="st0" d="M4.7,38.8H1.2v-2.9h-1v6.9h1v-3.2h3.4v3.2h1v-6.9h-1V38.8z M17.8,39c-0.2-0.6-0.5-1.1-0.7-1.6s-0.5-1-0.7-1.5
			h-0.9c-0.2,0.5-0.5,1-0.7,1.5s-0.4,1-0.7,1.6c-0.2,0.6-0.5,1.2-0.7,1.8c-0.2,0.6-0.5,1.3-0.8,2h1l0.6-1.8h3.2
			c0.1,0.3,0.2,0.6,0.3,0.9c0.1,0.3,0.2,0.6,0.3,0.9h1.1c-0.3-0.7-0.5-1.4-0.8-2C18.3,40.2,18.1,39.6,17.8,39z M14.7,40.3
			c0.2-0.6,0.4-1.1,0.6-1.7c0.2-0.5,0.4-1.1,0.7-1.6c0.2,0.5,0.5,1,0.7,1.6c0.2,0.5,0.4,1.1,0.6,1.7H14.7z M29.3,39
			c-0.4,1-0.7,1.9-1.1,2.7c-0.4-0.9-0.7-1.8-1.1-2.7s-0.7-2-1.1-3H25c0.3,0.7,0.5,1.4,0.7,2s0.5,1.2,0.7,1.8s0.5,1.1,0.7,1.6
			c0.2,0.5,0.4,1,0.7,1.5h0.9c0.2-0.5,0.5-1,0.7-1.5c0.2-0.5,0.4-1,0.7-1.6c0.2-0.6,0.5-1.2,0.7-1.8c0.2-0.6,0.5-1.3,0.7-2h-1.1
			C30,37,29.6,38,29.3,39z M39.5,39.6h2.9v-0.8h-2.9v-2.1h3.3v-0.8h-4.3v6.9H43V42h-3.6L39.5,39.6L39.5,39.6z M63.2,39
			c-0.2-0.6-0.5-1.1-0.7-1.6c-0.2-0.5-0.5-1-0.7-1.5h-0.9c-0.2,0.5-0.5,1-0.7,1.5s-0.4,1-0.7,1.6c-0.2,0.6-0.5,1.2-0.7,1.8
			c-0.2,0.6-0.5,1.3-0.8,2h1l0.6-1.8h3.2c0.1,0.3,0.2,0.6,0.3,0.9c0.1,0.3,0.2,0.6,0.3,0.9h1.1c-0.3-0.7-0.5-1.4-0.8-2
			C63.6,40.2,63.4,39.6,63.2,39z M60,40.3c0.2-0.6,0.4-1.1,0.6-1.7c0.2-0.5,0.4-1.1,0.7-1.6c0.2,0.5,0.5,1,0.7,1.6
			c0.2,0.5,0.4,1.1,0.6,1.7H60z M84.4,42c-0.1,0-0.2,0.1-0.4,0.1c-0.2,0-0.4,0-0.7,0c-0.4,0-0.7-0.1-1-0.2s-0.5-0.3-0.7-0.6
			c-0.2-0.2-0.3-0.5-0.4-0.9c-0.1-0.3-0.1-0.7-0.1-1.1c0-0.4,0.1-0.8,0.2-1.2s0.3-0.6,0.5-0.9s0.5-0.4,0.8-0.5
			c0.3-0.1,0.6-0.2,1-0.2c0.3,0,0.7,0,1,0.1c0.3,0.1,0.6,0.2,0.8,0.3l0.3-0.8c0,0-0.1-0.1-0.2-0.1S84.9,36,84.7,36s-0.4-0.1-0.6-0.1
			c-0.2,0-0.5-0.1-0.8-0.1c-0.5,0-0.9,0.1-1.3,0.2s-0.8,0.4-1.1,0.7s-0.5,0.7-0.7,1.1c-0.2,0.5-0.3,1-0.3,1.5c0,0.6,0.1,1.1,0.2,1.5
			c0.2,0.4,0.4,0.8,0.7,1.1c0.3,0.3,0.6,0.5,1,0.7c0.4,0.2,0.9,0.2,1.4,0.2c0.2,0,0.5,0,0.7,0s0.5-0.1,0.7-0.1s0.4-0.1,0.5-0.1
			c0.2,0,0.3-0.1,0.4-0.1v-3.2h-1V42z M98.5,36.7c-0.3-0.3-0.7-0.5-1.1-0.7c-0.4-0.2-0.8-0.2-1.3-0.2c-0.5,0-0.9,0.1-1.3,0.2
			c-0.4,0.2-0.8,0.4-1.1,0.7c-0.3,0.3-0.6,0.7-0.7,1.1s-0.3,1-0.3,1.6c0,0.6,0.1,1.1,0.3,1.6c0.2,0.5,0.4,0.8,0.7,1.1
			c0.3,0.3,0.7,0.5,1.1,0.7c0.4,0.2,0.8,0.2,1.3,0.2c0.5,0,0.9-0.1,1.3-0.2c0.4-0.2,0.8-0.4,1.1-0.7s0.5-0.7,0.7-1.1
			c0.2-0.5,0.3-1,0.3-1.6s-0.1-1.1-0.3-1.6S98.8,37,98.5,36.7z M98.3,40.5c-0.1,0.3-0.3,0.6-0.5,0.9c-0.2,0.2-0.4,0.4-0.7,0.6
			c-0.3,0.1-0.6,0.2-1,0.2s-0.7-0.1-1-0.2s-0.5-0.3-0.7-0.6s-0.4-0.5-0.5-0.9c-0.1-0.3-0.2-0.7-0.2-1.1c0-0.4,0.1-0.8,0.2-1.1
			c0.1-0.3,0.3-0.6,0.5-0.9c0.2-0.2,0.4-0.4,0.7-0.6c0.3-0.1,0.6-0.2,1-0.2c0.4,0,0.7,0.1,1,0.2c0.3,0.1,0.5,0.3,0.7,0.6
			c0.2,0.2,0.4,0.5,0.5,0.9c0.1,0.3,0.2,0.7,0.2,1.1C98.4,39.8,98.4,40.2,98.3,40.5z M112.5,36.7c-0.3-0.3-0.7-0.5-1.1-0.7
			s-0.8-0.2-1.3-0.2c-0.5,0-0.9,0.1-1.3,0.2s-0.8,0.4-1.1,0.7c-0.3,0.3-0.6,0.7-0.7,1.1c-0.2,0.5-0.3,1-0.3,1.6
			c0,0.6,0.1,1.1,0.3,1.6c0.2,0.5,0.4,0.8,0.7,1.1c0.3,0.3,0.7,0.5,1.1,0.7c0.4,0.2,0.8,0.2,1.3,0.2c0.5,0,0.9-0.1,1.3-0.2
			c0.4-0.2,0.8-0.4,1.1-0.7c0.3-0.3,0.5-0.7,0.7-1.1c0.2-0.5,0.3-1,0.3-1.6s-0.1-1.1-0.3-1.6C113,37.4,112.8,37,112.5,36.7z
			 M112.3,40.5c-0.1,0.3-0.3,0.6-0.5,0.9c-0.2,0.2-0.4,0.4-0.7,0.6c-0.3,0.1-0.6,0.2-1,0.2s-0.7-0.1-1-0.2c-0.3-0.1-0.5-0.3-0.7-0.6
			s-0.4-0.5-0.5-0.9c-0.1-0.3-0.2-0.7-0.2-1.1c0-0.4,0.1-0.8,0.2-1.1c0.1-0.3,0.3-0.6,0.5-0.9c0.2-0.2,0.4-0.4,0.7-0.6
			c0.3-0.1,0.6-0.2,1-0.2s0.7,0.1,1,0.2c0.3,0.1,0.5,0.3,0.7,0.6s0.4,0.5,0.5,0.9c0.1,0.3,0.2,0.7,0.2,1.1
			C112.4,39.8,112.4,40.2,112.3,40.5z M125.7,36.7c-0.3-0.3-0.8-0.5-1.2-0.7c-0.5-0.1-1-0.2-1.6-0.2c-0.3,0-0.6,0-0.9,0
			S121.3,36,121,36v6.7c0.3,0.1,0.6,0.1,0.9,0.1s0.7,0,0.9,0c0.6,0,1.1-0.1,1.6-0.2c0.5-0.1,0.9-0.4,1.2-0.7s0.6-0.7,0.8-1.1
			s0.3-1,0.3-1.6s-0.1-1.1-0.3-1.6S126.1,37,125.7,36.7z M125.1,41.4c-0.5,0.5-1.2,0.7-2.1,0.7c-0.3,0-0.5,0-0.6,0
			c-0.2,0-0.3,0-0.3,0v-5.3c0.1,0,0.2,0,0.3,0s0.4,0,0.6,0c0.9,0,1.6,0.2,2.1,0.7s0.7,1.1,0.7,2S125.5,40.9,125.1,41.4z M142.1,36.8
			h2.2v6.1h1v-6.1h2.2v-0.8h-5.4L142.1,36.8L142.1,36.8z M154.7,42.8h1v-6.9h-1V42.8z M169.4,35.9c-0.2,0.3-0.4,0.6-0.6,1
			s-0.4,0.8-0.6,1.3c-0.2,0.4-0.4,0.9-0.6,1.3c-0.2,0.4-0.4,0.8-0.5,1.2c-0.2-0.4-0.3-0.8-0.5-1.2c-0.2-0.4-0.4-0.9-0.6-1.3
			c-0.2-0.4-0.4-0.9-0.6-1.3s-0.4-0.7-0.6-1h-0.9c-0.1,0.5-0.1,1-0.2,1.6c-0.1,0.6-0.1,1.1-0.1,1.7c0,0.6-0.1,1.2-0.1,1.8
			s-0.1,1.2-0.1,1.8h1c0-0.9,0.1-1.9,0.1-2.8c0-0.9,0.1-1.8,0.2-2.6c0.1,0.1,0.2,0.3,0.3,0.5c0.1,0.2,0.2,0.5,0.4,0.7
			c0.1,0.3,0.3,0.6,0.4,0.9c0.1,0.3,0.3,0.6,0.4,0.9c0.1,0.3,0.2,0.6,0.4,0.8c0.1,0.2,0.2,0.5,0.3,0.6h0.8c0.1-0.2,0.2-0.4,0.3-0.6
			s0.2-0.5,0.4-0.8c0.1-0.3,0.3-0.6,0.4-0.9c0.1-0.3,0.3-0.6,0.4-0.9c0.1-0.3,0.2-0.5,0.4-0.7c0.1-0.2,0.2-0.4,0.3-0.5
			c0.1,0.8,0.1,1.6,0.2,2.6c0,0.9,0.1,1.8,0.1,2.8h1c-0.1-2.4-0.3-4.7-0.5-6.9C170.3,35.9,169.4,35.9,169.4,35.9z M179.4,42v-2.4
			h2.9v-0.8h-2.9v-2.1h3.3v-0.8h-4.3v6.9h4.6V42C183,42,179.4,42,179.4,42z"/>
	</g>
</g>
<rect x="-13.6" class="st1" width="91.7" height="27.2"/>
<text transform="matrix(1 0 0 1 8.0356 18.4598)" class="st2 st3 st4">EVENT</text>
<rect x="78.2" class="st1" width="100.3" height="27.4"/>
<text transform="matrix(1 0 0 1 78.1567 18.4598)"><tspan x="0" y="0" class="st3 st4">FES</tspan><tspan x="38.3" y="0" class="st3 st4">-</tspan></text>
</svg>
